<?xml version="1.0" encoding="utf-8" standalone="no"?>
<!DOCTYPE svg PUBLIC "-//W3C//DTD SVG 1.1//EN"
  "http://www.w3.org/Graphics/SVG/1.1/DTD/svg11.dtd">
<svg xmlns:xlink="http://www.w3.org/1999/xlink" width="170.64pt" height="170.64pt" viewBox="0 0 170.64 170.64" xmlns="http://www.w3.org/2000/svg" version="1.1">
 <metadata>
  <rdf:RDF xmlns:dc="http://purl.org/dc/elements/1.1/" xmlns:cc="http://creativecommons.org/ns#" xmlns:rdf="http://www.w3.org/1999/02/22-rdf-syntax-ns#">
   <cc:Work>
    <dc:type rdf:resource="http://purl.org/dc/dcmitype/StillImage"/>
    <dc:date>2026-09-30T11:08:58.830745</dc:date>
    <dc:format>image/svg+xml</dc:format>
    <dc:creator>
     <cc:Agent>
      <dc:title>Matplotlib v3.11.0, https://matplotlib.org/</dc:title>
     </cc:Agent>
    </dc:creator>
   </cc:Work>
  </rdf:RDF>
 </metadata>
 <defs>
  <style type="text/css">*{stroke-linejoin: round; stroke-linecap: butt}</style>
 </defs>
 <g id="figure_1">
  <g id="patch_1">
   <path d="M 0 170.64 
L 170.64 170.64 
L 170.64 0 
L 0 0 
L 0 170.64 
z
" style="fill: none"/>
  </g>
  <g id="axes_1">
   <g id="patch_2">
    <path d="M 26.618824 166.849412 
L 144.021176 166.849412 
Q 166.849412 166.849412 166.849412 144.021176 
L 166.849412 26.618824 
Q 166.849412 3.790588 144.021176 3.790588 
L 26.618824 3.790588 
Q 3.790588 3.790588 3.790588 26.618824 
L 3.790588 144.021176 
Q 3.790588 166.849412 26.618824 166.849412 
z
" clip-path="url(#p2532a46b35)" style="fill: #a51c30; stroke: #a51c30; stroke-linejoin: miter"/>
   </g>
   <g id="PathCollection_1">
    <defs>
     <path id="m735740dd32" d="M 0 8.062258 
C 2.138136 8.062258 4.188987 7.212767 5.700877 5.700877 
C 7.212767 4.188987 8.062258 2.138136 8.062258 0 
C 8.062258 -2.138136 7.212767 -4.188987 5.700877 -5.700877 
C 4.188987 -7.212767 2.138136 -8.062258 0 -8.062258 
C -2.138136 -8.062258 -4.188987 -7.212767 -5.700877 -5.700877 
C -7.212767 -4.188987 -8.062258 -2.138136 -8.062258 0 
C -8.062258 2.138136 -7.212767 4.188987 -5.700877 5.700877 
C -4.188987 7.212767 -2.138136 8.062258 0 8.062258 
z
" style="stroke: #ffffff"/>
    </defs>
    <g clip-path="url(#p2532a46b35)">
     <use xlink:href="#m735740dd32" x="40.478824" y="42.924706" style="fill: #ffffff; stroke: #ffffff"/>
    </g>
   </g>
   <g id="line2d_1">
    <path d="M 99.18 42.924706 
L 136.683529 42.924706 
" clip-path="url(#p2532a46b35)" style="fill: none; stroke: #ffffff; stroke-width: 3.2; stroke-linecap: round"/>
   </g>
   <g id="line2d_2">
    <path d="M 99.18 48.631765 
L 99.18 37.217647 
" clip-path="url(#p2532a46b35)" style="fill: none; stroke: #ffffff; stroke-width: 3.2; stroke-linecap: round"/>
   </g>
   <g id="line2d_3">
    <path d="M 136.683529 48.631765 
L 136.683529 37.217647 
" clip-path="url(#p2532a46b35)" style="fill: none; stroke: #ffffff; stroke-width: 3.2; stroke-linecap: round"/>
   </g>
   <g id="patch_3">
    <path d="M 20.911765 139.944706 
L 58.415294 139.944706 
L 58.415294 102.441176 
L 20.911765 102.441176 
L 20.911765 139.944706 
z
" clip-path="url(#p2532a46b35)" style="fill: none; stroke: #ffffff; stroke-width: 3.2"/>
   </g>
   <g id="patch_4">
    <path d="M 114.670588 138.721765 
L 152.174118 138.721765 
L 152.174118 101.218235 
L 114.670588 101.218235 
L 114.670588 138.721765 
z
" clip-path="url(#p2532a46b35)" style="fill: none; stroke: #ffffff; stroke-width: 2"/>
   </g>
   <g id="patch_5">
    <path d="M 99.995294 150.951176 
L 137.498824 150.951176 
L 137.498824 113.447647 
L 99.995294 113.447647 
L 99.995294 150.951176 
z
" clip-path="url(#p2532a46b35)" style="fill: none; stroke: #ffffff; stroke-width: 3.2"/>
   </g>
   <g id="line2d_4">
    <path d="M 99.995294 150.951176 
L 114.670588 138.721765 
" clip-path="url(#p2532a46b35)" style="fill: none; stroke: #ffffff; stroke-width: 2; stroke-linecap: square"/>
   </g>
   <g id="line2d_5">
    <path d="M 137.498824 150.951176 
L 152.174118 138.721765 
" clip-path="url(#p2532a46b35)" style="fill: none; stroke: #ffffff; stroke-width: 2; stroke-linecap: square"/>
   </g>
   <g id="line2d_6">
    <path d="M 137.498824 113.447647 
L 152.174118 101.218235 
" clip-path="url(#p2532a46b35)" style="fill: none; stroke: #ffffff; stroke-width: 2; stroke-linecap: square"/>
   </g>
   <g id="line2d_7">
    <path d="M 99.995294 113.447647 
L 114.670588 101.218235 
" clip-path="url(#p2532a46b35)" style="fill: none; stroke: #ffffff; stroke-width: 2; stroke-linecap: square"/>
   </g>
   <g id="PathCollection_2">
    <defs>
     <path id="m1284017c5e" d="M 0 4.1833 
C 1.109424 4.1833 2.173559 3.742521 2.95804 2.95804 
C 3.742521 2.173559 4.1833 1.109424 4.1833 0 
C 4.1833 -1.109424 3.742521 -2.173559 2.95804 -2.95804 
C 2.173559 -3.742521 1.109424 -4.1833 0 -4.1833 
C -1.109424 -4.1833 -2.173559 -3.742521 -2.95804 -2.95804 
C -3.742521 -2.173559 -4.1833 -1.109424 -4.1833 0 
C -4.1833 1.109424 -3.742521 2.173559 -2.95804 2.95804 
C -2.173559 3.742521 -1.109424 4.1833 0 4.1833 
z
" style="stroke: #000000"/>
    </defs>
    <g clip-path="url(#p2532a46b35)">
     <use xlink:href="#m1284017c5e" x="40.478824" y="42.924706" style="stroke: #000000"/>
    </g>
   </g>
   <g id="PathCollection_3">
    <g clip-path="url(#p2532a46b35)">
     <use xlink:href="#m1284017c5e" x="126.084706" y="42.924706" style="stroke: #000000"/>
    </g>
   </g>
   <g id="PathCollection_4">
    <g clip-path="url(#p2532a46b35)">
     <use xlink:href="#m1284017c5e" x="33.141176" y="115.485882" style="stroke: #000000"/>
    </g>
   </g>
   <g id="PathCollection_5">
    <g clip-path="url(#p2532a46b35)">
     <use xlink:href="#m1284017c5e" x="128.530588" y="130.568824" style="stroke: #000000"/>
    </g>
   </g>
   <g id="patch_6">
    <path d="M 56.945914 42.924706 
Q 72.276622 42.924706 87.60733 42.924706 
" clip-path="url(#p2532a46b35)" style="fill: none; stroke: #000000; stroke-width: 2; stroke-linecap: round"/>
    <path d="M 62.145914 45.524706 
L 56.945914 42.924706 
L 62.145914 40.324706 
z
" clip-path="url(#p2532a46b35)" style="stroke: #000000; stroke-width: 2; stroke-linecap: round"/>
    <path d="M 82.40733 40.324706 
L 87.60733 42.924706 
L 82.40733 45.524706 
z
" clip-path="url(#p2532a46b35)" style="stroke: #000000; stroke-width: 2; stroke-linecap: round"/>
   </g>
   <g id="patch_7">
    <path d="M 94.519713 62.19296 
Q 79.205366 77.166989 63.891018 92.141017 
" clip-path="url(#p2532a46b35)" style="fill: none; stroke: #000000; stroke-width: 2; stroke-linecap: round"/>
    <path d="M 88.983973 63.969354 
L 94.519713 62.19296 
L 92.619384 67.687389 
z
" clip-path="url(#p2532a46b35)" style="stroke: #000000; stroke-width: 2; stroke-linecap: round"/>
    <path d="M 69.426759 90.364623 
L 63.891018 92.141017 
L 65.791347 86.646588 
z
" clip-path="url(#p2532a46b35)" style="stroke: #000000; stroke-width: 2; stroke-linecap: round"/>
   </g>
   <g id="patch_8">
    <path d="M 68.360629 121.192941 
Q 81.243032 121.192941 94.125436 121.192941 
" clip-path="url(#p2532a46b35)" style="fill: none; stroke: #000000; stroke-width: 2; stroke-linecap: round"/>
    <path d="M 73.560629 123.792941 
L 68.360629 121.192941 
L 73.560629 118.592941 
z
" clip-path="url(#p2532a46b35)" style="stroke: #000000; stroke-width: 2; stroke-linecap: round"/>
    <path d="M 88.925436 118.592941 
L 94.125436 121.192941 
L 88.925436 123.792941 
z
" clip-path="url(#p2532a46b35)" style="stroke: #000000; stroke-width: 2; stroke-linecap: round"/>
   </g>
  </g>
 </g>
 <defs>
  <clipPath id="p2532a46b35">
   <rect x="2.16" y="2.16" width="166.32" height="166.32"/>
  </clipPath>
 </defs>
</svg>
